<svg data-v-423bf9ae="" xmlns="http://www.w3.org/2000/svg" viewBox="0 0 674 90" class="iconLeft"><!----><!----><!----><g data-v-423bf9ae="" id="ddbd2b42-1388-443a-8ee3-ed8f1629eec3" fill="white" transform="matrix(4.754358204761736,0,0,4.754358204761736,137.4801788989027,-4.255152112944053)"><path d="M7.31 4.20L7.31 4.20Q7.41 4.20 7.46 4.26L7.46 4.26L7.46 4.26Q7.52 4.31 7.52 4.41L7.52 4.41L7.52 5.17L7.52 5.17Q7.52 5.26 7.46 5.32L7.46 5.32L7.46 5.32Q7.41 5.38 7.31 5.38L7.31 5.38L4.70 5.38L4.70 5.38Q4.63 5.38 4.63 5.45L4.63 5.45L4.63 13.79L4.63 13.79Q4.63 13.89 4.58 13.94L4.58 13.94L4.58 13.94Q4.52 14 4.42 14L4.42 14L3.50 14L3.50 14Q3.40 14 3.35 13.94L3.35 13.94L3.35 13.94Q3.29 13.89 3.29 13.79L3.29 13.79L3.29 5.45L3.29 5.45Q3.29 5.38 3.22 5.38L3.22 5.38L0.74 5.38L0.74 5.38Q0.64 5.38 0.59 5.32L0.59 5.32L0.59 5.32Q0.53 5.26 0.53 5.17L0.53 5.17L0.53 4.41L0.53 4.41Q0.53 4.31 0.59 4.26L0.59 4.26L0.59 4.26Q0.64 4.20 0.74 4.20L0.74 4.20L7.31 4.20ZM12.01 12.96L12.01 12.96Q13.15 12.95 13.64 12.08L13.64 12.08L13.64 12.08Q13.71 11.96 13.79 11.96L13.79 11.96L13.79 11.96Q13.86 11.96 13.92 12.00L13.92 12.00L14.49 12.35L14.49 12.35Q14.60 12.42 14.60 12.53L14.60 12.53L14.57 12.64L14.57 12.64Q14.20 13.33 13.50 13.72L13.50 13.72L13.50 13.72Q12.81 14.11 11.89 14.11L11.89 14.11L11.89 14.11Q10.89 14.11 10.21 13.67L10.21 13.67L10.21 13.67Q9.52 13.23 9.17 12.40L9.17 12.40L9.17 12.40Q8.82 11.55 8.82 10.40L8.82 10.40L8.82 10.40Q8.82 9.38 8.97 8.85L8.97 8.85L8.97 8.85Q9.23 7.88 9.98 7.32L9.98 7.32L9.98 7.32Q10.74 6.76 11.82 6.76L11.82 6.76L11.82 6.76Q13.15 6.76 13.85 7.46L13.85 7.46L13.85 7.46Q14.55 8.15 14.76 9.46L14.76 9.46L14.76 9.46Q14.83 9.98 14.85 10.72L14.85 10.72L14.85 10.72Q14.85 10.93 14.64 10.93L14.64 10.93L10.22 10.93L10.22 10.93Q10.15 10.93 10.15 11.00L10.15 11.00L10.15 11.00Q10.18 11.54 10.25 11.76L10.25 11.76L10.25 11.76Q10.40 12.32 10.86 12.64L10.86 12.64L10.86 12.64Q11.33 12.96 12.01 12.96L12.01 12.96ZM11.82 7.92L11.82 7.92Q11.20 7.92 10.81 8.22L10.81 8.22L10.81 8.22Q10.43 8.51 10.29 9.03L10.29 9.03L10.29 9.03Q10.19 9.34 10.16 9.81L10.16 9.81L10.16 9.81Q10.16 9.88 10.23 9.88L10.23 9.88L13.41 9.88L13.41 9.88Q13.48 9.88 13.48 9.81L13.48 9.81L13.48 9.81Q13.45 9.35 13.40 9.13L13.40 9.13L13.40 9.13Q13.26 8.58 12.84 8.25L12.84 8.25L12.84 8.25Q12.43 7.92 11.82 7.92L11.82 7.92ZM23.95 6.78L23.95 6.78Q25.02 6.78 25.63 7.41L25.63 7.41L25.63 7.41Q26.25 8.05 26.25 9.18L26.25 9.18L26.25 13.79L26.25 13.79Q26.25 13.89 26.19 13.94L26.19 13.94L26.19 13.94Q26.14 14 26.04 14L26.04 14L25.13 14L25.13 14Q25.03 14 24.98 13.94L24.98 13.94L24.98 13.94Q24.92 13.89 24.92 13.79L24.92 13.79L24.92 9.46L24.92 9.46Q24.92 8.76 24.54 8.35L24.54 8.35L24.54 8.35Q24.15 7.94 23.51 7.94L23.51 7.94L23.51 7.94Q22.86 7.94 22.46 8.34L22.46 8.34L22.46 8.34Q22.05 8.75 22.05 9.44L22.05 9.44L22.05 13.79L22.05 13.79Q22.05 13.89 21.99 13.94L21.99 13.94L21.99 13.94Q21.94 14 21.84 14L21.84 14L20.93 14L20.93 14Q20.83 14 20.78 13.94L20.78 13.94L20.78 13.94Q20.72 13.89 20.72 13.79L20.72 13.79L20.72 9.46L20.72 9.46Q20.72 8.76 20.34 8.35L20.34 8.35L20.34 8.35Q19.95 7.94 19.31 7.94L19.31 7.94L19.31 7.94Q18.66 7.94 18.28 8.34L18.28 8.34L18.28 8.34Q17.89 8.75 17.89 9.44L17.89 9.44L17.89 13.79L17.89 13.79Q17.89 13.89 17.84 13.94L17.84 13.94L17.84 13.94Q17.78 14 17.68 14L17.68 14L16.76 14L16.76 14Q16.66 14 16.60 13.94L16.60 13.94L16.60 13.94Q16.55 13.89 16.55 13.79L16.55 13.79L16.55 7.08L16.55 7.08Q16.55 6.99 16.60 6.93L16.60 6.93L16.60 6.93Q16.66 6.87 16.76 6.87L16.76 6.87L17.68 6.87L17.68 6.87Q17.78 6.87 17.84 6.93L17.84 6.93L17.84 6.93Q17.89 6.99 17.89 7.08L17.89 7.08L17.89 7.46L17.89 7.46Q17.89 7.50 17.92 7.52L17.92 7.52L17.92 7.52Q17.95 7.53 17.98 7.50L17.98 7.50L17.98 7.50Q18.61 6.78 19.75 6.78L19.75 6.78L19.75 6.78Q20.45 6.78 20.96 7.05L20.96 7.05L20.96 7.05Q21.48 7.32 21.76 7.84L21.76 7.84L21.76 7.84Q21.80 7.90 21.85 7.84L21.85 7.84L21.85 7.84Q22.18 7.29 22.73 7.04L22.73 7.04L22.73 7.04Q23.28 6.78 23.95 6.78L23.95 6.78ZM28.90 5.81L28.90 5.81Q28.49 5.81 28.23 5.56L28.23 5.56L28.23 5.56Q27.97 5.32 27.97 4.93L27.97 4.93L27.97 4.93Q27.97 4.54 28.23 4.29L28.23 4.29L28.23 4.29Q28.49 4.05 28.90 4.05L28.90 4.05L28.90 4.05Q29.30 4.05 29.55 4.29L29.55 4.29L29.55 4.29Q29.81 4.54 29.81 4.93L29.81 4.93L29.81 4.93Q29.81 5.32 29.55 5.56L29.55 5.56L29.55 5.56Q29.30 5.81 28.90 5.81L28.90 5.81ZM28.43 14L28.43 14Q28.34 14 28.28 13.94L28.28 13.94L28.28 13.94Q28.22 13.89 28.22 13.79L28.22 13.79L28.22 7.08L28.22 7.08Q28.22 6.99 28.28 6.93L28.28 6.93L28.28 6.93Q28.34 6.87 28.43 6.87L28.43 6.87L29.36 6.87L29.36 6.87Q29.46 6.87 29.51 6.93L29.51 6.93L29.51 6.93Q29.57 6.99 29.57 7.08L29.57 7.08L29.57 13.79L29.57 13.79Q29.57 13.89 29.51 13.94L29.51 13.94L29.51 13.94Q29.46 14 29.36 14L29.36 14L28.43 14ZM35.14 7.77L35.14 7.77Q35.14 7.87 35.08 7.92L35.08 7.92L35.08 7.92Q35.03 7.98 34.93 7.98L34.93 7.98L33.50 7.98L33.50 7.98Q33.43 7.98 33.43 8.05L33.43 8.05L33.43 11.70L33.43 11.70Q33.43 12.31 33.69 12.56L33.69 12.56L33.69 12.56Q33.95 12.81 34.52 12.81L34.52 12.81L34.86 12.81L34.86 12.81Q34.96 12.81 35.01 12.87L35.01 12.87L35.01 12.87Q35.07 12.92 35.07 13.02L35.07 13.02L35.07 13.75L35.07 13.75Q35.07 13.94 34.86 13.97L34.86 13.97L34.29 13.99L34.29 13.99Q33.21 13.99 32.68 13.61L32.68 13.61L32.68 13.61Q32.14 13.23 32.14 12.19L32.14 12.19L32.14 8.05L32.14 8.05Q32.14 7.98 32.07 7.98L32.07 7.98L31.30 7.98L31.30 7.98Q31.21 7.98 31.15 7.92L31.15 7.92L31.15 7.92Q31.09 7.87 31.09 7.77L31.09 7.77L31.09 7.08L31.09 7.08Q31.09 6.99 31.15 6.93L31.15 6.93L31.15 6.93Q31.21 6.87 31.30 6.87L31.30 6.87L32.07 6.87L32.07 6.87Q32.14 6.87 32.14 6.80L32.14 6.80L32.14 5.24L32.14 5.24Q32.14 5.14 32.20 5.08L32.20 5.08L32.20 5.08Q32.26 5.03 32.35 5.03L32.35 5.03L33.22 5.03L33.22 5.03Q33.32 5.03 33.38 5.08L33.38 5.08L33.38 5.08Q33.43 5.14 33.43 5.24L33.43 5.24L33.43 6.80L33.43 6.80Q33.43 6.87 33.50 6.87L33.50 6.87L34.93 6.87L34.93 6.87Q35.03 6.87 35.08 6.93L35.08 6.93L35.08 6.93Q35.14 6.99 35.14 7.08L35.14 7.08L35.14 7.77ZM39.72 14.11L39.72 14.11Q38.67 14.11 37.91 13.59L37.91 13.59L37.91 13.59Q37.14 13.06 36.83 12.12L36.83 12.12L36.83 12.12Q36.58 11.37 36.58 10.42L36.58 10.42L36.58 10.42Q36.58 9.42 36.82 8.74L36.82 8.74L36.82 8.74Q37.13 7.81 37.90 7.29L37.90 7.29L37.90 7.29Q38.67 6.76 39.73 6.76L39.73 6.76L39.73 6.76Q40.74 6.76 41.49 7.29L41.49 7.29L41.49 7.29Q42.24 7.81 42.56 8.72L42.56 8.72L42.56 8.72Q42.81 9.44 42.81 10.40L42.81 10.40L42.81 10.40Q42.81 11.38 42.56 12.12L42.56 12.12L42.56 12.12Q42.25 13.06 41.50 13.59L41.50 13.59L41.50 13.59Q40.74 14.11 39.72 14.11L39.72 14.11ZM39.72 12.95L39.72 12.95Q40.28 12.95 40.70 12.63L40.70 12.63L40.70 12.63Q41.12 12.32 41.30 11.75L41.30 11.75L41.30 11.75Q41.45 11.21 41.45 10.43L41.45 10.43L41.45 10.43Q41.45 9.65 41.31 9.13L41.31 9.13L41.31 9.13Q41.13 8.55 40.71 8.24L40.71 8.24L40.71 8.24Q40.29 7.92 39.69 7.92L39.69 7.92L39.69 7.92Q39.12 7.92 38.70 8.24L38.70 8.24L38.70 8.24Q38.28 8.55 38.09 9.13L38.09 9.13L38.09 9.13Q37.94 9.62 37.94 10.43L37.94 10.43L37.94 10.43Q37.94 11.24 38.09 11.75L38.09 11.75L38.09 11.75Q38.26 12.32 38.69 12.63L38.69 12.63L38.69 12.63Q39.12 12.95 39.72 12.95L39.72 12.95ZM50.34 8.67L50.34 8.67Q50.60 9.37 50.60 10.46L50.60 10.46L50.60 10.46Q50.60 11.48 50.39 12.15L50.39 12.15L50.39 12.15Q50.09 13.08 49.41 13.59L49.41 13.59L49.41 13.59Q48.73 14.11 47.70 14.11L47.70 14.11L47.70 14.11Q47.21 14.11 46.80 13.93L46.80 13.93L46.80 13.93Q46.38 13.75 46.07 13.40L46.07 13.40L46.07 13.40Q46.05 13.37 46.02 13.38L46.02 13.38L46.02 13.38Q45.99 13.38 45.99 13.43L45.99 13.43L45.99 16.46L45.99 16.46Q45.99 16.56 45.93 16.62L45.93 16.62L45.93 16.62Q45.88 16.67 45.78 16.67L45.78 16.67L44.86 16.67L44.86 16.67Q44.76 16.67 44.70 16.62L44.70 16.62L44.70 16.62Q44.65 16.56 44.65 16.46L44.65 16.46L44.65 7.08L44.65 7.08Q44.65 6.99 44.70 6.93L44.70 6.93L44.70 6.93Q44.76 6.87 44.86 6.87L44.86 6.87L45.78 6.87L45.78 6.87Q45.88 6.87 45.93 6.93L45.93 6.93L45.93 6.93Q45.99 6.99 45.99 7.08L45.99 7.08L45.99 7.45L45.99 7.45Q45.99 7.49 46.02 7.50L46.02 7.50L46.02 7.50Q46.05 7.52 46.07 7.49L46.07 7.49L46.07 7.49Q46.38 7.14 46.80 6.95L46.80 6.95L46.80 6.95Q47.21 6.76 47.70 6.76L47.70 6.76L47.70 6.76Q48.71 6.76 49.37 7.26L49.37 7.26L49.37 7.26Q50.04 7.76 50.34 8.67L50.34 8.67ZM48.80 12.28L48.80 12.28Q49.25 11.58 49.25 10.43L49.25 10.43L49.25 10.43Q49.25 9.35 48.90 8.69L48.90 8.69L48.90 8.69Q48.50 7.92 47.56 7.92L47.56 7.92L47.56 7.92Q46.76 7.92 46.34 8.68L46.34 8.68L46.34 8.68Q46.00 9.28 46.00 10.44L46.00 10.44L46.00 10.44Q46.00 11.59 46.37 12.24L46.37 12.24L46.37 12.24Q46.77 12.95 47.56 12.95L47.56 12.95L47.56 12.95Q48.37 12.95 48.80 12.28L48.80 12.28ZM55.29 12.96L55.29 12.96Q56.42 12.95 56.91 12.08L56.91 12.08L56.91 12.08Q56.98 11.96 57.06 11.96L57.06 11.96L57.06 11.96Q57.13 11.96 57.19 12.00L57.19 12.00L57.76 12.35L57.76 12.35Q57.88 12.42 57.88 12.53L57.88 12.53L57.85 12.64L57.85 12.64Q57.47 13.33 56.78 13.72L56.78 13.72L56.78 13.72Q56.08 14.11 55.16 14.11L55.16 14.11L55.16 14.11Q54.17 14.11 53.48 13.67L53.48 13.67L53.48 13.67Q52.79 13.23 52.44 12.40L52.44 12.40L52.44 12.40Q52.09 11.55 52.09 10.40L52.09 10.40L52.09 10.40Q52.09 9.38 52.25 8.85L52.25 8.85L52.25 8.85Q52.50 7.88 53.26 7.32L53.26 7.32L53.26 7.32Q54.01 6.76 55.09 6.76L55.09 6.76L55.09 6.76Q56.42 6.76 57.12 7.46L57.12 7.46L57.12 7.46Q57.82 8.15 58.03 9.46L58.03 9.46L58.03 9.46Q58.10 9.98 58.13 10.72L58.13 10.72L58.13 10.72Q58.13 10.93 57.92 10.93L57.92 10.93L53.49 10.93L53.49 10.93Q53.42 10.93 53.42 11.00L53.42 11.00L53.42 11.00Q53.45 11.54 53.52 11.76L53.52 11.76L53.52 11.76Q53.68 12.32 54.14 12.64L54.14 12.64L54.14 12.64Q54.60 12.96 55.29 12.96L55.29 12.96ZM55.09 7.92L55.09 7.92Q54.47 7.92 54.09 8.22L54.09 8.22L54.09 8.22Q53.70 8.51 53.56 9.03L53.56 9.03L53.56 9.03Q53.47 9.34 53.44 9.81L53.44 9.81L53.44 9.81Q53.44 9.88 53.51 9.88L53.51 9.88L56.69 9.88L56.69 9.88Q56.76 9.88 56.76 9.81L56.76 9.81L56.76 9.81Q56.73 9.35 56.67 9.13L56.67 9.13L56.67 9.13Q56.53 8.58 56.12 8.25L56.12 8.25L56.12 8.25Q55.71 7.92 55.09 7.92L55.09 7.92ZM68.80 14L68.80 14Q68.61 14 68.56 13.83L68.56 13.83L68.07 12.26L68.07 12.26Q68.04 12.21 68.00 12.21L68.00 12.21L64.09 12.21L64.09 12.21Q64.05 12.21 64.02 12.26L64.02 12.26L63.53 13.83L63.53 13.83Q63.48 14 63.29 14L63.29 14L62.30 14L62.30 14Q62.06 14 62.13 13.76L62.13 13.76L65.16 4.37L65.16 4.37Q65.21 4.20 65.39 4.20L65.39 4.20L66.68 4.20L66.68 4.20Q66.86 4.20 66.92 4.37L66.92 4.37L69.97 13.76L69.97 13.76Q69.99 13.79 69.99 13.85L69.99 13.85L69.99 13.85Q69.99 14 69.80 14L69.80 14L68.80 14ZM64.39 11.06L64.39 11.06Q64.37 11.14 64.44 11.14L64.44 11.14L67.65 11.14L67.65 11.14Q67.73 11.14 67.70 11.06L67.70 11.06L66.08 5.84L66.08 5.84Q66.07 5.78 66.04 5.78L66.04 5.78L66.04 5.78Q66.01 5.78 66.00 5.84L66.00 5.84L64.39 11.06ZM74.76 14.11L74.76 14.11Q73.75 14.11 72.97 13.71L72.97 13.71L72.97 13.71Q72.20 13.31 71.77 12.58L71.77 12.58L71.77 12.58Q71.34 11.84 71.34 10.89L71.34 10.89L71.34 7.31L71.34 7.31Q71.34 6.34 71.77 5.61L71.77 5.61L71.77 5.61Q72.20 4.89 72.97 4.49L72.97 4.49L72.97 4.49Q73.75 4.09 74.76 4.09L74.76 4.09L74.76 4.09Q75.77 4.09 76.54 4.48L76.54 4.48L76.54 4.48Q77.31 4.87 77.73 5.56L77.73 5.56L77.73 5.56Q78.16 6.26 78.16 7.13L78.16 7.13L78.16 7.21L78.16 7.21Q78.16 7.31 78.11 7.36L78.11 7.36L78.11 7.36Q78.05 7.42 77.95 7.42L77.95 7.42L77.03 7.42L77.03 7.42Q76.93 7.42 76.87 7.38L76.87 7.38L76.87 7.38Q76.82 7.34 76.82 7.28L76.82 7.28L76.82 7.15L76.82 7.15Q76.82 6.31 76.25 5.79L76.25 5.79L76.25 5.79Q75.68 5.26 74.76 5.26L74.76 5.26L74.76 5.26Q73.82 5.26 73.25 5.81L73.25 5.81L73.25 5.81Q72.69 6.36 72.69 7.27L72.69 7.27L72.69 10.93L72.69 10.93Q72.69 11.84 73.28 12.39L73.28 12.39L73.28 12.39Q73.86 12.94 74.82 12.94L74.82 12.94L74.82 12.94Q75.74 12.94 76.28 12.45L76.28 12.45L76.28 12.45Q76.82 11.97 76.82 11.13L76.82 11.13L76.82 10.07L76.82 10.07Q76.82 10.00 76.75 10.00L76.75 10.00L74.94 10.00L74.94 10.00Q74.84 10.00 74.79 9.94L74.79 9.94L74.79 9.94Q74.73 9.88 74.73 9.79L74.73 9.79L74.73 9.06L74.73 9.06Q74.73 8.96 74.79 8.90L74.79 8.90L74.79 8.90Q74.84 8.85 74.94 8.85L74.94 8.85L77.95 8.85L77.95 8.85Q78.05 8.85 78.11 8.90L78.11 8.90L78.11 8.90Q78.16 8.96 78.16 9.06L78.16 9.06L78.16 10.77L78.16 10.77Q78.16 12.38 77.24 13.24L77.24 13.24L77.24 13.24Q76.33 14.11 74.76 14.11L74.76 14.11ZM85.34 8.89L85.34 8.89Q85.26 8.93 85.33 8.97L85.33 8.97L85.33 8.97Q86.80 9.63 86.80 11.31L86.80 11.31L86.80 11.31Q86.80 12.60 85.95 13.30L85.95 13.30L85.95 13.30Q85.09 14 83.72 14L83.72 14L80.30 14L80.30 14Q80.21 14 80.15 13.94L80.15 13.94L80.15 13.94Q80.09 13.89 80.09 13.79L80.09 13.79L80.09 4.41L80.09 4.41Q80.09 4.31 80.15 4.26L80.15 4.26L80.15 4.26Q80.21 4.20 80.30 4.20L80.30 4.20L83.61 4.20L83.61 4.20Q85.06 4.20 85.87 4.87L85.87 4.87L85.87 4.87Q86.67 5.53 86.67 6.80L86.67 6.80L86.67 6.80Q86.67 8.30 85.34 8.89L85.34 8.89ZM81.51 5.36L81.51 5.36Q81.44 5.36 81.44 5.43L81.44 5.43L81.44 8.36L81.44 8.36Q81.44 8.43 81.51 8.43L81.51 8.43L83.61 8.43L83.61 8.43Q84.42 8.43 84.89 8.02L84.89 8.02L84.89 8.02Q85.36 7.62 85.36 6.92L85.36 6.92L85.36 6.92Q85.36 6.20 84.89 5.78L84.89 5.78L84.89 5.78Q84.42 5.36 83.61 5.36L83.61 5.36L81.51 5.36ZM83.72 12.82L83.72 12.82Q84.52 12.82 84.99 12.38L84.99 12.38L84.99 12.38Q85.46 11.94 85.46 11.19L85.46 11.19L85.46 11.19Q85.46 10.43 84.98 9.99L84.98 9.99L84.98 9.99Q84.50 9.55 83.68 9.55L83.68 9.55L81.51 9.55L81.51 9.55Q81.44 9.55 81.44 9.62L81.44 9.62L81.44 12.75L81.44 12.75Q81.44 12.82 81.51 12.82L81.51 12.82L83.72 12.82ZM92.02 14.13L92.02 14.13Q91.00 14.13 90.22 13.71L90.22 13.71L90.22 13.71Q89.43 13.29 89.00 12.52L89.00 12.52L89.00 12.52Q88.56 11.76 88.56 10.77L88.56 10.77L88.56 7.43L88.56 7.43Q88.56 6.44 89.00 5.68L89.00 5.68L89.00 5.68Q89.43 4.93 90.22 4.51L90.22 4.51L90.22 4.51Q91.00 4.09 92.02 4.09L92.02 4.09L92.02 4.09Q93.06 4.09 93.84 4.51L93.84 4.51L93.84 4.51Q94.63 4.93 95.06 5.68L95.06 5.68L95.06 5.68Q95.49 6.44 95.49 7.43L95.49 7.43L95.49 10.77L95.49 10.77Q95.49 11.76 95.06 12.52L95.06 12.52L95.06 12.52Q94.63 13.29 93.84 13.71L93.84 13.71L93.84 13.71Q93.06 14.13 92.02 14.13L92.02 14.13ZM92.02 12.96L92.02 12.96Q92.97 12.96 93.56 12.38L93.56 12.38L93.56 12.38Q94.15 11.79 94.15 10.82L94.15 10.82L94.15 7.42L94.15 7.42Q94.15 6.44 93.56 5.85L93.56 5.85L93.56 5.85Q92.97 5.25 92.02 5.25L92.02 5.25L92.02 5.25Q91.07 5.25 90.49 5.85L90.49 5.85L90.49 5.85Q89.91 6.44 89.91 7.42L89.91 7.42L89.91 10.82L89.91 10.82Q89.91 11.79 90.49 12.38L90.49 12.38L90.49 12.38Q91.07 12.96 92.02 12.96L92.02 12.96ZM97.75 14L97.75 14Q97.65 14 97.59 13.94L97.59 13.94L97.59 13.94Q97.54 13.89 97.54 13.79L97.54 13.79L97.54 4.41L97.54 4.41Q97.54 4.31 97.59 4.26L97.59 4.26L97.59 4.26Q97.65 4.20 97.75 4.20L97.75 4.20L98.67 4.20L98.67 4.20Q98.77 4.20 98.83 4.26L98.83 4.26L98.83 4.26Q98.88 4.31 98.88 4.41L98.88 4.41L98.88 12.77L98.88 12.77Q98.88 12.84 98.95 12.84L98.95 12.84L103.70 12.84L103.70 12.84Q103.80 12.84 103.85 12.89L103.85 12.89L103.85 12.89Q103.91 12.95 103.91 13.05L103.91 13.05L103.91 13.79L103.91 13.79Q103.91 13.89 103.85 13.94L103.85 13.94L103.85 13.94Q103.80 14 103.70 14L103.70 14L97.75 14ZM111.52 14L111.52 14Q111.34 14 111.29 13.83L111.29 13.83L110.80 12.26L110.80 12.26Q110.77 12.21 110.73 12.21L110.73 12.21L106.82 12.21L106.82 12.21Q106.78 12.21 106.75 12.26L106.75 12.26L106.26 13.83L106.26 13.83Q106.20 14 106.02 14L106.02 14L105.03 14L105.03 14Q104.79 14 104.86 13.76L104.86 13.76L107.88 4.37L107.88 4.37Q107.94 4.20 108.12 4.20L108.12 4.20L109.41 4.20L109.41 4.20Q109.59 4.20 109.65 4.37L109.65 4.37L112.70 13.76L112.70 13.76Q112.71 13.79 112.71 13.85L112.71 13.85L112.71 13.85Q112.71 14 112.53 14L112.53 14L111.52 14ZM107.11 11.06L107.11 11.06Q107.10 11.14 107.17 11.14L107.17 11.14L110.38 11.14L110.38 11.14Q110.46 11.14 110.43 11.06L110.43 11.06L108.81 5.84L108.81 5.84Q108.79 5.78 108.77 5.78L108.77 5.78L108.77 5.78Q108.74 5.78 108.72 5.84L108.72 5.84L107.11 11.06Z"></path></g><!----><g data-v-423bf9ae="" id="b4629021-113a-4f6f-8a06-d4dac257c69f" transform="matrix(7.5,0,0,7.5,0,-15)" stroke="none" fill="white"><path d="M7.969 2L6 13.844 5.969 14h2.063l1.969-11.844.031-.156H7.969zM5 3.813l-.531.344-4 2.5L0 6.938v2.126l.469.281 4 2.5.531.344V9.814L2.094 8.001 5 6.188V3.813zm6 0v2.375l2.906 1.813L11 9.814v2.375l.531-.344 4-2.5.469-.281V6.938l-.469-.281-4-2.5L11 3.813z"></path></g><!----></svg>