<?xml version="1.0" encoding="UTF-8"?>
<svg width="384px" height="384px" viewBox="0 0 384 384" version="1.1" xmlns="http://www.w3.org/2000/svg" xmlns:xlink="http://www.w3.org/1999/xlink">
    <!-- Generator: Sketch 52.2 (67145) - http://www.bohemiancoding.com/sketch -->
    <title>Bremer Logo Tearaway</title>
    <desc>Created with Sketch.</desc>
    <defs>
        <polygon id="path-1" points="0 0.880670659 383.119329 0.880670659 383.119329 384 0 384"></polygon>
    </defs>
    <g id="Phase-1---Modules" stroke="none" stroke-width="1" fill="none" fill-rule="evenodd" opacity="0.362611607">
        <g id="Module/Hero-Right/Desktop" transform="translate(-863.000000, -859.000000)">
            <g transform="translate(147.000000, 0.000000)" id="Bremer-Logo-Tearaway">
                <g transform="translate(716.000000, 859.000000)">
                    <g id="Group-6">
                        <g id="Group-3">
                            <mask id="mask-2" fill="white">
                                <use xlink:href="#path-1"></use>
                            </mask>
                            <g id="Clip-2"></g>
                            <path d="M191.561504,384 C85.931612,384 -0.00160958084,298.069078 -0.00160958084,192.441485 C-0.00160958084,86.8161916 85.931612,0.880670659 191.561504,0.880670659 C297.189097,0.880670659 383.120019,86.8161916 383.120019,192.441485 C383.120019,298.069078 297.189097,384 191.561504,384 M191.561504,25.9970299 C99.7832048,25.9970299 25.1147497,100.663186 25.1147497,192.441485 C25.1147497,284.217485 99.7832048,358.883641 191.561504,358.883641 C283.335205,358.883641 358.00366,284.217485 358.00366,192.441485 C358.00366,100.663186 283.335205,25.9970299 191.561504,25.9970299" id="Fill-1" fill="#C1C6C8" mask="url(#mask-2)"></path>
                        </g>
                        <path d="M222.60342,256.533614 C222.60342,250.111387 220.189049,245.659746 215.374103,243.171794 C210.554558,240.69304 204.130031,239.449063 196.105121,239.449063 L175.29784,239.449063 L175.29784,274.931123 L196.316666,274.931123 C199.239205,274.931123 202.269816,274.680489 205.408498,274.165423 C208.544881,273.650357 211.39384,272.732896 213.948474,271.422237 C216.505408,270.109279 218.584067,268.251363 220.189049,265.839291 C221.796331,263.434117 222.60342,260.332225 222.60342,256.533614 M217.567732,194.99474 C217.567732,189.738309 215.558055,185.900608 211.543301,183.497734 C207.523947,181.085662 201.573097,179.880776 193.693049,179.880776 L175.29784,179.880776 L175.29784,211.858549 L195.445193,211.858549 C202.451468,211.858549 207.891851,210.43292 211.757145,207.583962 C215.627037,204.739602 217.567732,200.545495 217.567732,194.99474 M260.049169,260.037902 C260.049169,268.508896 258.375205,275.623243 255.01578,281.385543 C251.656354,287.15704 247.202414,291.790333 241.65166,295.29462 C236.100905,298.798908 229.793648,301.321351 222.709193,302.848153 C215.627037,304.379554 208.367828,305.152153 200.920067,305.152153 L139.16275,305.152153 L139.16275,150.098932 L200.920067,150.098932 C206.905408,150.098932 213.040211,150.71977 219.317576,151.956848 C225.592642,153.200824 231.285959,155.316273 236.395229,158.312393 C241.509097,161.299315 245.668714,165.357758 248.880977,170.462429 C252.093241,175.578596 253.700522,182.072105 253.700522,189.952153 C253.700522,198.572608 251.362031,205.693854 246.689648,211.306692 C242.014965,216.933327 235.887061,220.982572 228.299037,223.463626 L228.299037,223.902812 C232.674798,224.629423 236.799923,225.981471 240.665217,227.952057 C244.53281,229.922644 247.892235,232.440489 250.743492,235.50559 C253.590151,238.575291 255.85736,242.155459 257.531325,246.243794 C259.209887,250.32983 260.049169,254.926333 260.049169,260.037902" id="Fill-4" fill="#C1C6C8"></path>
                    </g>
                    <polygon id="Fill-7" fill="#C1C6C8" points="140 114 253 114 253 78 140 78"></polygon>
                </g>
            </g>
        </g>
    </g>
</svg>